<svg xmlns="http://www.w3.org/2000/svg" xmlns:xlink="http://www.w3.org/1999/xlink" fill="none" version="1.1" width="17.5" height="14" viewBox="0 0 17.5 14"><defs><clipPath id="master_svg0_1_307"><rect x="0" y="0" width="17.5" height="14" rx="0"/></clipPath></defs><g clip-path="url(#master_svg0_1_307)"><g transform="matrix(1,0,0,-1,0,28.601539611816406)"><g><path d="M5.706521855069399,18.675769805908203Q8.0978318550694,18.730459805908204,9.701091855069398,20.097649805908205Q11.304351855069399,21.437489805908204,11.358651855069398,23.488269805908203Q11.304351855069399,25.539069805908206,9.701091855069398,26.878869805908202Q8.0978318550694,28.246069805908203,5.706521855069399,28.300769805908203Q3.315221855069399,28.246069805908203,1.711961855069399,26.878869805908202Q0.10869965506939888,25.539069805908206,0.05435185506939888,23.488269805908203Q0.08152575506939888,21.874989805908204,1.1413118550693988,20.671859805908202Q0.9782648550693989,20.261709805908204,0.7336998550693988,19.988269805908203Q0.543481855069399,19.742179805908204,0.3804388550693989,19.605459805908204Q0.2989168550693989,19.523429805908204,0.2717428550693989,19.496079805908202Q0.24456885506939888,19.468739805908204,0.24456885506939888,19.468739805908204L0.21739485506939887,19.468739805908204Q0.0000040550693988783415,19.277329805908202,0.08152575506939888,18.976549805908203Q0.19022185506939887,18.703109805908202,0.48913485506939886,18.675769805908203Q1.413051855069399,18.703109805908202,2.173921855069399,19.0038898059082Q2.554351855069399,19.167959805908204,2.8532618550693987,19.332019805908203Q4.130441855069399,18.703109805908202,5.706521855069399,18.675769805908203ZM12.228251855069399,23.488269805908203Q12.146751855069398,21.136709805908204,10.489151855069398,19.605459805908204Q8.804351855069399,18.074209805908204,6.358701855069399,17.828109805908202Q6.8750018550693985,16.269519805908203,8.3423918550694,15.312489805908204Q9.8097818550694,14.328113605908204,11.7934518550694,14.300769805908203Q13.3695518550694,14.328113605908204,14.646751855069398,14.957019805908203Q14.945651855069398,14.792956805908203,15.326051855069398,14.628894805908203Q16.086951855069398,14.328113605908204,17.010851855069397,14.300769805908203Q17.3097518550694,14.328113605908204,17.4184518550694,14.601550805908204Q17.500051855069398,14.902331805908203,17.2554518550694,15.093738805908202L17.2554518550694,15.121081805908203Q17.2282518550694,15.121081805908203,17.2282518550694,15.121081805908203Q17.201051855069398,15.148425805908204,17.1195518550694,15.230457805908204Q16.9565518550694,15.367179805908203,16.7663518550694,15.613269805908203Q16.5217518550694,15.914049805908203,16.3586518550694,16.296859805908202Q17.4184518550694,17.499989805908204,17.4456518550694,19.113269805908203Q17.3913518550694,21.054679805908204,15.923951855069399,22.394519805908203Q14.4565518550694,23.734359805908205,12.201051855069398,23.925769805908203Q12.228251855069399,23.707019805908203,12.228251855069399,23.488269805908203Z" fill="#6B7280" fill-opacity="1" style="mix-blend-mode:passthrough"/></g></g></g></svg>