<svg xmlns="http://www.w3.org/2000/svg" xmlns:xlink="http://www.w3.org/1999/xlink" fill="none" version="1.1" width="90" height="90" viewBox="0 0 90 90"><g><rect x="0" y="0" width="90" height="90" rx="45" fill="#111827" fill-opacity="1" style="mix-blend-mode:passthrough"/><g transform="matrix(1,0,0,-1,0,145)"><g><path d="M45,127.5Q47.6953,127.3772,49.1016,125.0446L74.41409999999999,79.86607Q75.58590000000001,77.41071,74.41409999999999,74.95536Q73.0078,72.622768,70.3125,72.5L19.6875,72.5Q16.99219,72.622768,15.585938,74.95536Q14.414062,77.41071,15.585938,79.86607L41.0156,125.0446Q42.4219,127.3772,45,127.5ZM45,111.78569999999999Q42.4219,111.5402,42.1875,108.83930000000001L42.1875,95.08930000000001Q42.4219,92.3884,45,92.1429Q47.5781,92.3884,47.8125,95.08930000000001L47.8125,108.83930000000001Q47.5781,111.5402,45,111.78569999999999ZM48.75,84.2857Q48.75,86.00450000000001,47.6953,87.1094Q46.6406,88.2143,45,88.2143Q43.3594,88.2143,42.3047,87.1094Q41.25,86.00450000000001,41.25,84.2857Q41.25,82.56700000000001,42.3047,81.46205Q43.3594,80.35714,45,80.35714Q46.6406,80.35714,47.6953,81.46205Q48.75,82.56700000000001,48.75,84.2857Z" fill="#FFFFFF" fill-opacity="1" style="mix-blend-mode:passthrough"/></g></g></g></svg>