<svg xmlns="http://www.w3.org/2000/svg" xmlns:xlink="http://www.w3.org/1999/xlink" fill="none" version="1.1" width="14" height="14" viewBox="0 0 14 14"><defs><clipPath id="master_svg0_1_312"><rect x="0" y="0" width="14" height="14" rx="0"/></clipPath></defs><g clip-path="url(#master_svg0_1_312)"><g transform="matrix(1,0,0,-1,0,28.6015625)"><g><path d="M7,28.30078125Q8.91406,28.27348125,10.5,27.37108125Q12.0859,26.44138125,13.0703,24.80078125Q14,23.13281125,14,21.30078125Q14,19.46875125,13.0703,17.80078125Q12.0859,16.16016125,10.5,15.23046925Q8.91406,14.32812505,7,14.30078125Q5.08594,14.32812505,3.5,15.23046925Q1.91406,16.16016125,0.929688,17.80078125Q0,19.46875125,0,21.30078125Q0,23.13281125,0.929688,24.80078125Q1.91406,26.44138125,3.5,27.37108125Q5.08594,28.27348125,7,28.30078125ZM6.34375,25.01958125L6.34375,21.30078125L6.34375,25.01958125L6.34375,21.30078125Q6.34375,20.94531125,6.64453,20.75390125L9.26953,19.00390125Q9.78906,18.70312125,10.1719,19.19531125Q10.4727,19.71484125,9.98047,20.09766125L7.65625,21.65625125L7.65625,25.01958125Q7.60156,25.62108125,7,25.67578125Q6.39844,25.62108125,6.34375,25.01958125Z" fill="#6B7280" fill-opacity="1" style="mix-blend-mode:passthrough"/></g></g></g></svg>